<?xml version="1.0" standalone="no"?>
<!DOCTYPE svg PUBLIC "-//W3C//DTD SVG 20010904//EN"
 "http://www.w3.org/TR/2001/REC-SVG-20010904/DTD/svg10.dtd">
<svg version="1.0" xmlns="http://www.w3.org/2000/svg"
 width="205.000000pt" height="141.000000pt" viewBox="0 0 205.000000 141.000000"
 preserveAspectRatio="xMidYMid meet">
<metadata>
Created by potrace 1.10, written by Peter Selinger 2001-2011
</metadata>
<g transform="translate(0.000000,141.000000) scale(0.100000,-0.100000)"
fill="#000000" stroke="none">
<path d="M774 1286 c-17 -8 -44 -30 -59 -50 -36 -48 -90 -173 -116 -273 l-22
-82 -51 -11 c-28 -6 -62 -14 -75 -17 -23 -6 -24 -5 -17 36 5 32 3 41 -8 41 -9
0 -16 -16 -20 -43 l-7 -44 -132 -23 c-125 -22 -158 -32 -145 -45 6 -6 245 32
260 41 11 7 11 6 -17 -145 -28 -149 -29 -161 -16 -161 9 0 35 104 63 250 l13
64 68 14 c38 7 70 12 72 10 1 -2 -10 -64 -26 -138 -27 -134 -37 -250 -20 -250
4 0 11 26 15 57 7 63 54 296 65 327 6 14 36 27 122 51 197 55 291 104 322 167
18 36 18 39 -1 80 -33 74 -146 158 -212 157 -14 0 -39 -6 -56 -13z m97 -18
c91 -31 177 -127 163 -182 -8 -34 -55 -73 -124 -103 -56 -25 -291 -96 -297
-89 -2 2 15 60 38 130 47 143 87 213 139 238 42 21 38 21 81 6z"/>
<path d="M1520 1002 l0 -37 -222 -28 c-269 -34 -338 -46 -338 -59 0 -7 13 -8
33 -4 17 4 127 18 242 31 116 14 224 27 241 29 l31 4 6 -141 c5 -138 18 -207
39 -207 6 0 7 11 3 28 -6 21 -24 311 -20 319 1 1 90 10 198 19 108 10 197 21
197 26 0 12 -161 6 -370 -15 -23 -2 -25 1 -22 36 2 22 -1 37 -7 37 -6 0 -11
-17 -11 -38z"/>
<path d="M1214 785 c-12 -8 -27 -29 -35 -47 -13 -31 -13 -32 -19 -8 -3 13 -11
25 -19 28 -10 3 -11 -7 -6 -44 4 -27 8 -55 10 -61 7 -22 23 -14 30 15 9 38 57
112 73 112 6 0 12 5 12 10 0 14 -22 12 -46 -5z"/>
<path d="M1376 778 c-9 -12 -16 -29 -17 -38 0 -8 -5 -3 -11 13 -6 16 -17 27
-29 27 -25 0 -51 -42 -47 -77 3 -24 8 -28 33 -28 20 0 33 7 40 22 l11 21 9
-21 c14 -31 31 -32 60 -3 37 37 35 49 -19 93 -12 11 -18 9 -30 -9z m-47 -70
c-22 -40 -47 -10 -28 34 l12 30 13 -23 c8 -16 9 -30 3 -41z m95 35 c7 -18 -22
-56 -35 -47 -10 6 -12 57 -3 67 9 9 32 -3 38 -20z"/>
<path d="M1012 747 c-49 -52 -9 -116 63 -103 19 4 35 11 35 17 0 6 -14 8 -32
4 -36 -6 -55 2 -58 25 -4 29 0 39 23 51 22 11 22 11 -2 -15 -28 -30 -15 -35
20 -8 14 12 20 25 16 35 -9 24 -40 21 -65 -6z"/>
<path d="M810 741 c0 -4 24 -12 52 -17 37 -6 54 -14 56 -26 3 -16 -27 -51 -62
-70 -17 -9 -18 -7 -14 16 4 21 2 26 -10 24 -22 -4 -28 -42 -37 -219 -6 -125
-5 -151 6 -147 16 5 26 86 28 214 1 78 2 82 26 88 38 10 95 65 95 91 0 13 -10
31 -22 39 -24 17 -118 22 -118 7z"/>
<path d="M697 693 c-4 -3 -7 -21 -7 -39 0 -20 -6 -34 -16 -38 -24 -9 -25 -8
-22 24 4 37 -14 42 -27 6 -16 -46 11 -70 58 -51 15 6 17 0 17 -71 -1 -113 -16
-218 -39 -263 -23 -44 -71 -88 -106 -97 -32 -8 -87 11 -120 42 -30 28 -43 26
-24 -3 41 -66 139 -86 206 -41 80 53 117 173 112 359 -3 77 0 111 10 122 25
31 -15 78 -42 50z"/>
</g>
</svg>
