<svg width="800" height="800" viewBox="0 0 800 800" fill="none" xmlns="http://www.w3.org/2000/svg">
<rect x="253" y="253" width="292" height="292" fill="#11111B"/>
<path fill-rule="evenodd" clip-rule="evenodd" d="M400 150C261.929 150 150 261.929 150 400C150 538.07 261.929 650 400 650C538.07 650 650 538.07 650 400C650 261.929 538.07 150 400 150ZM380.685 314.226L330.309 354.343C309.174 371.173 298.606 379.59 300.669 388.985L300.779 389.45C303.129 398.788 316.524 402.378 343.315 409.558C358.202 413.545 365.648 415.54 369.14 421.182L369.318 421.48C372.688 427.19 370.77 434.342 366.937 448.647L365.935 452.385C355.307 492.045 349.995 511.873 360.227 518.278C370.46 524.68 386.742 511.715 419.307 485.785L469.683 445.668C490.818 428.838 501.385 420.422 499.323 411.025L499.215 410.56C496.863 401.223 483.468 397.633 456.678 390.455C441.79 386.465 434.345 384.47 430.853 378.828L430.675 378.53C427.305 372.82 429.222 365.667 433.055 351.365L434.057 347.625C444.682 307.966 449.997 288.137 439.762 281.733C429.53 275.329 413.247 288.295 380.685 314.226Z" fill="url(#paint0_linear_63_2)"/>
<defs>
<linearGradient id="paint0_linear_63_2" x1="150.25" y1="649.75" x2="649.75" y2="150.25" gradientUnits="userSpaceOnUse">
<stop stop-color="#3D7AF5"/>
<stop offset="1" stop-color="#55DFF7"/>
</linearGradient>
</defs>
</svg>
